<svg height="24" viewBox="0 0 19 24" width="19" xmlns="http://www.w3.org/2000/svg"><g fill="none" fill-rule="evenodd" stroke="#616161" stroke-linecap="round" stroke-linejoin="round"><path d="m11.9702 20.9018c0 1.416-1.147 2.563-2.563 2.563s-2.563-1.147-2.563-2.563"/><path d="m16.2231 18.0961h-13.632"/><path d="m2.5913 14.9531v-4.752c0-3.765 3.052-6.816 6.816-6.816s6.816 3.051 6.816 6.816v3.894"/><path d="m16.895 20.936h-14.975c-.784 0-1.42-.636-1.42-1.42s.636-1.42 1.42-1.42h14.975c.784 0 1.42.636 1.42 1.42s-.636 1.42-1.42 1.42z"/><path d="m2.5913 14.2411c0 1.792-.003 3.049-.671 3.855"/><path d="m16.2231 14.2411c0 1.792.003 3.049.672 3.855"/><path d="m10.8501 1.9423c0-.796-.646-1.442-1.442-1.442-.797 0-1.443.646-1.443 1.442s.646 1.442 1.443 1.442c.796 0 1.442-.646 1.442-1.442z"/></g></svg>