<svg height="23" viewBox="0 0 21 23" width="21" xmlns="http://www.w3.org/2000/svg"><g fill="none" fill-rule="evenodd" stroke="#fff" stroke-linecap="round" stroke-linejoin="round" transform="translate(0 .675366)"><path d="m4.8818 19.5986-4.104-2.896 10.452-14.808 4.103 2.896z"/><path d="m15.0947 1.1962-.398-.281c-1.023-.722-2.438-.478-3.161.545l-.306.434 4.103 2.897.307-.435c.723-1.023.478-2.438-.545-3.16z"/><path d="m.7783 16.7021-.278 4.749 4.382-1.853"/><path d="m9.6582 4.1205 4.104 2.896"/><path d="m11.3896 16.4218c0 2.507 2.032 4.54 4.54 4.54s4.54-2.033 4.54-4.54-2.032-4.54-4.54-4.54-4.54 2.033-4.54 4.54z"/><path d="m15.9297 14.4657v3.912"/><path d="m17.8857 16.4218h-3.912"/></g></svg>